<?xml version="1.0" encoding="utf-8"?>
<!-- Generator: Adobe Illustrator 19.0.0, SVG Export Plug-In . SVG Version: 6.00 Build 0)  -->
<svg version="1.1" id="图层_1" xmlns="http://www.w3.org/2000/svg" xmlns:xlink="http://www.w3.org/1999/xlink" x="0px" y="0px"
	 viewBox="0 0 210 47.7" style="enable-background:new 0 0 210 47.7;" xml:space="preserve">
<style type="text/css">
	.st0{fill:#4F575C;}
	.st1{fill-rule:evenodd;clip-rule:evenodd;fill:#4F575C;}
</style>
<g id="XMLID_2_">
	<path id="XMLID_26_" class="st0" d="M32.4,40.3v-0.9h8.2v0.9h-5.7l-0.2,1.2h5l-0.3,4.8h1.5v0.8h-8.7v-0.8h6.1l0.1-1.3h-5.2l0.6-4.7
		H32.4L32.4,40.3z M38.5,42.4h-4l-0.3,1.7h4.1L38.5,42.4L38.5,42.4z M66.3,40.2v-0.8h3.8v0.8h-0.5v4.9l0.7-0.1c0,0.3,0,0.6,0,0.9
		L69.6,46v1.7h-0.8v-1.5c-1,0.2-1.8,0.4-2.4,0.5l-0.1-0.9l0.6-0.1v-5.4H66.3L66.3,40.2z M70.3,41.6H72V43c0,0.1,0,0.1,0,0.1h-2v0.9
		h1.9c-0.1,1.2-0.9,2.1-2.2,2.9c0.2,0.3,0.5,0.6,0.7,0.9c1.2-0.9,1.9-1.8,2.1-2.7c0.3,1,1,1.9,2.2,2.6c0.1-0.1,0.2-0.2,0.3-0.4
		c0.1-0.2,0.2-0.4,0.3-0.5c-1.2-0.5-1.9-1.5-2.2-2.7h2.1v-0.9H73c0-0.1,0-0.2,0-0.3v-1.2h1.9v-0.9h-1.3c0.3-0.5,0.7-1,1-1.6
		l-0.9-0.3c-0.3,0.6-0.7,1.2-1.1,1.9h-2.3V41.6L70.3,41.6z M71.4,40.7c-0.3-0.5-0.6-1-0.9-1.4l0.8-0.4c0.2,0.3,0.5,0.7,1,1.4
		L71.4,40.7L71.4,40.7z M67.6,45.5l1.1-0.2v-1.2h-1.1V45.5L67.6,45.5z M67.6,40.2v1.2h1.1v-1.2H67.6L67.6,40.2z M67.6,42.2v1.2h1.1
		v-1.2H67.6L67.6,42.2z M107.1,40.8l0.7,0.4c-0.3,0.8-0.7,1.5-1,2.3c0.4,0.7,0.7,1.3,1,2l-0.7,0.5l-0.7-1.5
		c-0.1,0.1-0.2,0.3-0.3,0.6c-0.1,0.2-0.3,0.6-0.6,1.1l-0.8-0.5c0.1-0.1,0.1-0.2,0.1-0.3c0.1-0.1,0.1-0.2,0.1-0.3l-0.8,0.4l-0.5-1.1
		c-0.1,0.2-0.3,0.6-0.6,1c-0.2,0.3-0.3,0.6-0.4,0.8l-0.7-0.5v1.8h-1v-8.3h7.9v6.9c0,0.9-0.4,1.3-1.2,1.3c-0.3,0-0.8,0-1.4,0
		c0-0.3-0.1-0.6-0.2-1c0.3,0,0.7,0,1.2,0c0.5,0,0.7-0.2,0.7-0.6v-5.8h-6v5.5c0-0.1,0.1-0.3,0.3-0.5c0.4-0.7,0.7-1.3,0.9-1.7
		c-0.4-0.8-0.8-1.6-1.1-2.3l0.7-0.4l0.9,1.7c0.3-0.6,0.6-1.1,0.8-1.7l0.7,0.3l0.3-0.2c0.1,0.2,0.3,0.6,0.6,1
		c0.1,0.3,0.2,0.5,0.3,0.6C106.6,42,106.8,41.4,107.1,40.8L107.1,40.8z M105.8,43.5c-0.3-0.6-0.6-1.2-0.9-1.7
		c-0.2,0.5-0.5,1.1-0.8,1.6l0.9,1.7c0.1-0.1,0.2-0.4,0.3-0.6C105.6,44.1,105.7,43.8,105.8,43.5L105.8,43.5z M143.2,46.4
		c-1.6-1-2.7-2.1-3.4-3.5v4.7h-1v-4.8c-0.7,1.5-1.8,2.7-3.4,3.7c-0.1-0.1-0.1-0.2-0.3-0.4c-0.2-0.3-0.3-0.5-0.3-0.6
		c1.7-1,2.9-2.2,3.6-3.8h-3.2v-1h3.6v-1.9h1v1.9h3.6v1h-3.2c0.7,1.6,1.9,2.9,3.6,3.7C143.6,45.8,143.4,46.1,143.2,46.4L143.2,46.4z
		 M169.7,47.3v-8.1h8v0.9h-7v6.2h7.2v0.9H169.7L169.7,47.3z M174.9,46.1h1v-2.4h1.7v-0.9h-4.6v-0.2v-0.8c1.3,0,2.7-0.1,4.1-0.3
		l-0.3-0.9c-1.6,0.2-3.2,0.3-4.8,0.3v1.6c0,1.4-0.2,2.4-0.7,3.1c0.3,0.2,0.6,0.4,0.9,0.6c0.5-0.8,0.8-1.7,0.8-2.5h2V46.1z"/>
	<g id="XMLID_3_">
		<path id="XMLID_13_" class="st1" d="M116.7,0.5h29.1v2.4h-29.1V0.5L116.7,0.5z M184.1,1h8.7V0h6v1h8.7c1.3,0,2.4,1.1,2.4,2.4v1.2
			h-4.8V3.1h-18.7v1.5h-4.8V3.4C181.7,2.1,182.8,1,184.1,1L184.1,1z M181.7,5.9H210V8h-10.4l0.6,1.9c0.2,0.5,0.2,1,0.2,1.5v13.3
			h-3.1c-1.6,0-2.9-1.3-2.9-2.9v-1.9c-1.2,0.8-2.7,1.6-4.2,2.2c-3,1.3-6.3,2.3-8.6,2.7v-3.2c2-0.4,4.8-1.2,7.4-2.4
			c2.2-1,4.2-2.1,5.4-3.3v-1.7c-1.2,0.8-2.7,1.6-4.2,2.3c-3,1.3-6.3,2.3-8.6,2.7v-2.9c2-0.4,4.8-1.2,7.4-2.4c2.1-1,4.1-2.1,5.3-3.2
			l-0.4-1.2c-1.2,0.7-2.5,1.4-3.9,2c-3,1.3-6.2,2.3-8.5,2.7v-2.5c2.1-0.4,4.9-1.3,7.5-2.4c0.8-0.3,1.5-0.7,2.2-1.1h-9.7V5.9
			L181.7,5.9z M207.9,17.3c-0.3-0.9-0.3-1.7,0-2.6l1.5-5.2h-4.8l-1.5,5.2c-0.3,0.9-0.3,1.7,0,2.6l2.1,7.5h4.8L207.9,17.3L207.9,17.3
			z M137.3,14.6v-1.3h2.5V6.9h-3.5v17.8H135c-1.6,0-2.9-1.3-2.9-2.9V6.9V4.6h4.2h3.5h1.7h1.4c1.6,0,2.9,1.3,2.9,2.9v17.3h-6v-7.3
			C138.4,17.2,137.3,16,137.3,14.6L137.3,14.6z M175.6,21.4v-2.7h2.5v-3.4h-2.5v-2.7h2.5V9.4h-2.5V6.7h2.5V3.4h-2.5V0.7h-4.2v2.7
			h-5.1l0.9-2.7h-6l-1.9,6.1h1.3v15.1c0,1.6,1.3,2.9,2.9,2.9h1.2h1.9h11.6v-3.4H175.6L175.6,21.4z M171.4,6.7v2.7h-4.9V6.7H171.4
			L171.4,6.7z M171.4,12.8v2.7h-4.9v-2.7H171.4L171.4,12.8z M171.4,18.8v2.7h-4.9v-2.7H171.4L171.4,18.8z M148.5,22h9.6v2.4h-9.6V22
			L148.5,22z M155.4,16.7h2.7v2.4h-3.5h-2h0l0,0c-0.9,0-1.8-0.4-2.3-1.2c-0.6-0.8-0.7-1.7-0.4-2.6l1.7-5.4h-3.5l3-9.2h2
			c1,0,1.8,0.4,2.4,1.2c0.6,0.8,0.7,1.7,0.4,2.6l-1,3.3h3.5L155.4,16.7L155.4,16.7z M121.9,14.6v-1.3h2.5V6.9h-3.5v17.8h-1.3
			c-1.6,0-2.9-1.3-2.9-2.9V6.9V4.6h4.2h3.5h1.7h1.4c1.6,0,2.9,1.3,2.9,2.9v17.3h-6v-7.3C123,17.2,121.9,16,121.9,14.6z"/>
		<g id="XMLID_4_">
			<path id="XMLID_12_" class="st0" d="M15.2,24.8h-0.4c-2.2,0-4.1-1.8-4.1-4.1V0h2.9c0.9,0,1.5,0.7,1.5,1.5V24.8z"/>
			<path id="XMLID_11_" class="st0" d="M71.8,24.8h-0.4c-2.2,0-4.1-1.8-4.1-4.1V0h2.9c0.8,0,1.5,0.7,1.5,1.5V24.8z"/>
			<path id="XMLID_10_" class="st0" d="M75.9,20.9c1.2-0.1,2-0.6,2.6-1.4c0.7-0.9,1-2.3,1-4.1V0h2.9c0.9,0,1.5,0.7,1.5,1.5v13.9
				c0,3.2-0.7,5.5-2.2,7.1c-1.4,1.5-3.3,2.2-5.8,2.3V20.9z"/>
			<path id="XMLID_9_" class="st0" d="M8,20.9c-1.2-0.1-2-0.6-2.6-1.4c-0.7-0.9-1-2.3-1-4.1V1.5C4.4,0.7,3.7,0,2.9,0H0v15.4
				c0,3.2,0.7,5.5,2.2,7.1c1.4,1.5,3.3,2.2,5.8,2.3V20.9z"/>
			<path id="XMLID_8_" class="st0" d="M91.6,24.8h-0.4c-2.2,0-4.1-1.8-4.1-4.1V0H90c0.9,0,1.5,0.7,1.5,1.5V24.8z"/>
			<path id="XMLID_7_" class="st0" d="M50.3,21.7V0c4.1,0,8.2,0,12.4,0c0.9,0,1.5,0.7,1.5,1.5v2.8h-9.5v5.4h6.8
				c0.9,0,1.5,0.7,1.5,1.5v2.5h-8.4v6.7h7.9c0.9,0,1.5,0.7,1.5,1.5v2.8c-3.6,0-7.2,0-10.8,0C51.6,24.8,50.3,23.4,50.3,21.7z"/>
			<path id="XMLID_6_" class="st0" d="M93.9,24.8l6-23.6c0.2-0.7,0.8-1.2,1.5-1.2h1.9c0.7,0,1.3,0.5,1.5,1.2l6,23.6h-4.6l-3.9-15.3
				l-3.9,15.3H93.9z"/>
			<path id="XMLID_5_" class="st0" d="M23.2,0l3.8,15.8l3.9-14.7C31.1,0.5,31.7,0,32.4,0h1.8c0.7,0,1.3,0.5,1.5,1.2l3.9,14.7L43.5,0
				h4.3l-6,24.7l-0.9,0c-1.9,0-3.5-1.2-4-3L33.4,8.3L29,24.8l-0.9,0c-1.9,0-3.5-1.3-3.9-3.1L19,0H23.2z"/>
		</g>
	</g>
</g>
</svg>
